<?xml version="1.0" standalone="no"?>
<!DOCTYPE svg PUBLIC "-//W3C//DTD SVG 20010904//EN"
 "http://www.w3.org/TR/2001/REC-SVG-20010904/DTD/svg10.dtd">
<svg version="1.0" xmlns="http://www.w3.org/2000/svg"
 width="1280.000000pt" height="839.000000pt" viewBox="0 0 1280.000000 839.000000"
 preserveAspectRatio="xMidYMid meet">
<metadata>
Created by potrace 1.15, written by Peter Selinger 2001-2017
</metadata>
<g transform="translate(0.000000,839.000000) scale(0.100000,-0.100000)"
fill="#000000" stroke="none">
<path d="M3540 8384 c-305 -26 -467 -53 -694 -115 -729 -197 -1377 -648 -1941
-1349 -342 -425 -534 -938 -536 -1430 0 -302 55 -524 186 -743 296 -498 901
-738 1790 -713 554 15 997 87 1432 231 541 180 999 480 1274 834 34 45 64 81
65 81 2 0 11 -14 19 -30 9 -17 45 -61 80 -98 193 -205 450 -200 770 12 133 89
304 248 369 344 84 123 107 242 70 355 -24 72 -114 160 -214 208 -73 36 -220
79 -267 79 -13 0 -23 2 -23 5 0 3 17 40 39 83 77 156 147 364 176 529 94 537
-93 972 -545 1270 -309 204 -818 360 -1400 428 -128 15 -553 27 -650 19z m430
-114 c187 -12 395 -38 585 -76 555 -109 938 -277 1181 -519 103 -102 159 -180
215 -299 168 -359 110 -834 -160 -1316 -34 -60 -61 -111 -61 -113 0 -3 57 -7
128 -10 136 -5 211 -21 298 -64 238 -116 232 -298 -17 -539 -230 -222 -487
-347 -646 -315 -77 15 -135 46 -192 104 -57 57 -92 119 -137 236 l-31 84 -42
-75 c-164 -298 -452 -566 -831 -772 -484 -264 -1074 -409 -1810 -447 -1122
-57 -1784 297 -1946 1041 -22 101 -30 350 -15 481 40 348 170 696 376 1004
209 314 618 731 956 977 624 455 1360 666 2149 618z"/>
<path d="M8827 7433 c-14 -14 -6 -47 32 -126 103 -212 125 -420 64 -607 -19
-60 -15 -66 -63 95 -76 261 -226 473 -395 556 -154 75 -373 34 -445 -84 -30
-49 -27 -121 10 -193 16 -32 82 -126 145 -209 120 -154 171 -231 199 -299 l16
-38 -23 16 c-183 129 -352 221 -493 266 -189 60 -307 27 -208 -59 38 -33 228
-162 409 -277 l110 -69 -270 -6 c-358 -9 -456 -24 -485 -80 -36 -65 109 -140
477 -246 l192 -56 -91 -65 c-105 -75 -262 -223 -354 -333 l-64 -76 -40 38
c-155 147 -323 104 -444 -115 -128 -230 -105 -491 62 -711 l39 -51 -23 -112
c-12 -61 -27 -162 -33 -224 -6 -62 -14 -127 -16 -144 l-5 -31 -73 1 c-223 0
-341 -205 -392 -684 -8 -74 -15 -168 -15 -208 0 -44 -7 -95 -19 -130 -10 -31
-25 -97 -31 -147 l-13 -90 -82 -85 c-44 -47 -93 -100 -107 -119 l-26 -35 -25
30 c-62 74 -204 120 -337 110 -207 -15 -362 -99 -498 -271 l-32 -40 3 170 c2
145 -1 175 -15 202 -65 118 -252 143 -433 57 l-55 -25 -46 32 c-55 38 -149 69
-207 69 -61 0 -143 -25 -199 -60 -27 -16 -52 -30 -54 -30 -3 0 -17 14 -31 30
-36 43 -75 61 -138 61 -69 1 -145 -24 -217 -71 l-56 -37 -32 43 c-61 85 -146
126 -261 125 -79 -1 -137 -25 -172 -73 -30 -40 -33 -119 -8 -198 11 -35 19
-65 18 -66 -7 -7 -897 162 -2110 401 -774 153 -1409 276 -1412 273 -3 -3 -8
-21 -12 -40 -4 -31 -2 -36 18 -41 118 -29 2919 -575 3300 -643 l496 -89 -5
-123 c-7 -182 18 -272 97 -351 53 -53 123 -84 199 -89 57 -4 62 -6 62 -27 0
-38 51 -79 126 -102 62 -18 70 -24 78 -52 13 -46 84 -107 148 -126 85 -25 193
-30 265 -11 87 22 132 47 202 111 101 94 176 233 226 419 13 49 26 90 28 92 1
2 52 -6 112 -17 137 -24 632 -113 1505 -269 371 -67 824 -148 1005 -180 182
-33 607 -109 945 -169 338 -61 919 -165 1290 -231 837 -150 1224 -219 1730
-310 217 -39 497 -91 622 -115 124 -25 233 -45 242 -45 14 0 35 64 24 75 -8 8
-391 83 -768 150 -201 36 -388 70 -417 76 l-51 10 9 32 c18 60 50 252 64 382
59 543 1 1085 -173 1612 -80 240 -212 496 -370 717 -131 181 -370 448 -539
599 l-51 46 24 68 c53 152 15 257 -119 325 -46 23 -79 31 -137 35 -99 7 -160
-12 -246 -78 -55 -42 -64 -47 -64 -29 0 11 -11 78 -25 150 -29 147 -91 351
-140 457 l-33 72 27 43 c43 66 124 136 204 174 56 26 106 40 227 60 200 33
230 50 230 130 0 29 -6 38 -41 60 -143 90 -401 131 -628 100 -63 -9 -116 -14
-118 -12 -2 2 21 48 52 102 136 242 152 384 42 384 -52 0 -121 -51 -257 -190
l-125 -128 -2 134 c-5 361 -124 610 -386 806 -74 54 -104 67 -120 51z m-390
-153 c177 -87 320 -326 388 -650 36 -168 66 -178 130 -46 91 189 100 413 25
630 l-19 56 23 -15 c52 -34 152 -172 196 -268 57 -128 73 -221 79 -467 7 -283
5 -281 144 -122 160 182 317 320 317 279 0 -48 -68 -195 -168 -361 -89 -148
-80 -160 93 -122 120 27 329 32 440 11 88 -16 239 -68 250 -85 10 -17 -32 -29
-162 -49 -144 -22 -201 -39 -286 -84 -99 -52 -195 -151 -232 -240 -14 -33 -13
-37 21 -107 74 -155 141 -395 168 -605 13 -99 13 -100 -11 -142 -30 -52 -28
-87 7 -91 21 -2 30 6 58 52 50 85 126 162 190 193 107 53 244 27 317 -58 25
-30 27 -39 23 -99 -3 -52 -12 -84 -41 -144 -91 -182 -359 -471 -504 -542 -29
-15 -56 -25 -58 -22 -3 3 2 27 10 53 8 27 13 50 12 51 -1 1 -14 5 -29 9 -20 5
-29 3 -32 -6 -18 -68 -80 -245 -101 -291 -24 -52 -31 -59 -68 -69 -168 -45
-363 -203 -539 -436 -165 -219 -338 -363 -503 -418 -115 -38 -315 -38 -469 1
l-64 16 53 81 c102 159 201 364 193 404 -2 10 -12 18 -22 18 -15 0 -29 -22
-61 -95 -148 -339 -395 -633 -630 -753 -88 -44 -159 -60 -251 -55 -115 6 -210
53 -309 152 -190 191 -186 398 16 686 80 116 321 347 492 474 83 62 147 117
147 126 0 19 -19 40 -36 40 -17 0 -215 -146 -324 -239 l-95 -82 -8 58 c-9 73
0 287 19 457 78 697 389 1237 912 1585 91 61 109 85 80 108 -7 5 -98 33 -203
62 -186 52 -410 127 -470 159 l-30 16 36 7 c65 14 360 29 576 29 209 0 212 0
219 22 9 30 -7 42 -281 218 -124 80 -238 155 -253 167 l-27 22 45 -13 c168
-51 437 -203 544 -309 33 -33 55 -47 70 -45 19 3 21 9 21 78 0 119 -44 202
-234 445 -107 137 -161 230 -161 276 0 41 50 85 123 109 83 27 161 20 244 -20z
m-1004 -1706 c35 -18 107 -83 107 -97 0 -4 -13 -28 -30 -52 -16 -23 -56 -91
-89 -149 -54 -98 -59 -104 -65 -79 -11 43 -53 101 -86 118 -48 25 -49 -4 -1
-51 27 -28 44 -57 56 -96 16 -55 15 -57 -8 -115 -14 -32 -37 -96 -51 -143 -15
-47 -30 -92 -32 -100 -10 -31 -94 124 -119 221 -22 83 -16 231 13 306 22 57
71 145 101 180 57 68 138 90 204 57z m3224 -1149 c370 -385 593 -751 725
-1189 76 -253 127 -521 149 -791 15 -177 6 -589 -16 -745 -15 -111 -60 -349
-67 -355 -2 -1 -160 26 -353 60 -192 35 -516 93 -720 130 -687 123 -1040 187
-1042 188 -1 1 5 29 13 62 61 263 57 565 -10 765 l-25 74 30 60 c123 242 386
452 716 571 236 86 305 167 274 323 -27 137 -120 252 -251 314 -91 43 -141 56
-254 64 -47 4 -86 8 -86 9 0 1 13 33 28 71 27 66 30 69 68 75 21 3 52 11 68
18 99 40 317 245 446 418 l74 101 54 -46 c30 -26 111 -105 179 -177z m-3541
-313 c8 -4 13 -64 15 -172 l4 -166 -69 -79 c-118 -138 -200 -271 -242 -395
-28 -83 -26 -236 4 -315 47 -124 167 -250 304 -319 249 -126 535 -24 820 293
l57 63 93 -22 c123 -30 316 -38 413 -17 102 22 172 51 253 104 154 103 260
208 385 381 124 171 298 316 452 377 91 36 227 45 329 21 192 -45 326 -190
326 -352 0 -44 -5 -59 -23 -78 -37 -36 -106 -73 -218 -114 -220 -82 -401 -194
-545 -337 -98 -98 -151 -169 -208 -283 l-37 -73 30 -92 c52 -158 68 -306 51
-483 -10 -115 -43 -300 -55 -312 -3 -3 -186 27 -408 66 -221 40 -753 135
-1182 212 l-780 139 -33 38 c-53 62 -122 178 -155 261 -28 72 -30 87 -35 248
-2 94 -1 198 3 230 l7 59 23 -91 c67 -264 203 -446 413 -553 54 -28 96 -25
100 7 3 16 -5 27 -28 40 -162 88 -247 165 -316 282 -53 89 -98 224 -119 352
-17 107 -20 362 -5 488 41 348 110 520 235 584 31 16 121 21 141 8z m-3266
-1129 c38 -20 64 -43 87 -77 l33 -48 -26 -42 c-14 -22 -32 -58 -41 -78 -8 -21
-20 -38 -27 -38 -6 0 -51 7 -100 16 l-88 16 -26 56 c-27 60 -38 126 -28 167
15 58 128 73 216 28z m508 -49 c44 -31 44 -54 -2 -109 -128 -152 -156 -262
-125 -495 5 -41 7 -98 3 -127 -6 -49 -9 -53 -41 -64 -66 -21 -163 25 -214 101
-36 53 -54 158 -44 262 12 142 54 246 133 330 88 94 231 144 290 102z m453 -6
c19 -6 47 -20 62 -31 l29 -20 -65 -62 c-102 -100 -138 -177 -198 -419 -40
-165 -47 -181 -114 -258 -31 -34 -68 -82 -82 -105 -14 -24 -28 -43 -32 -43
-19 0 -101 33 -111 44 -7 10 -6 31 5 77 18 77 19 146 4 293 -14 132 0 203 55
289 60 95 182 202 264 232 46 17 138 19 183 3z m526 -27 c23 -11 47 -29 53
-41 8 -14 11 -70 8 -168 -1 -81 1 -175 5 -208 l9 -62 -59 13 c-32 6 -57 16
-57 21 16 115 17 111 -17 118 -53 10 -59 8 -59 -23 0 -44 -28 -198 -51 -281
-12 -41 -44 -122 -72 -180 -62 -131 -147 -222 -240 -258 -71 -27 -187 -30
-264 -7 -57 17 -103 62 -103 99 0 28 43 95 110 170 64 74 83 117 121 276 53
223 90 300 186 391 145 137 315 192 430 140z m1263 -395 c13 -60 75 -193 124
-265 20 -30 35 -55 34 -56 -4 -4 -622 107 -628 112 -9 8 26 22 119 48 164 45
200 84 182 195 -6 33 -12 64 -15 69 -7 10 56 94 118 159 l41 43 7 -128 c5 -70
12 -150 18 -177z m-387 211 c69 -34 113 -92 130 -172 15 -72 1 -86 -106 -115
-107 -29 -156 -51 -190 -87 l-27 -29 -248 44 c-136 25 -249 46 -251 48 -10 9
71 124 129 184 109 112 235 161 405 157 87 -2 108 -6 158 -30z"/>
<path d="M8905 5640 c-128 -23 -257 -93 -358 -196 -84 -85 -84 -84 -27 -127
43 -32 50 -35 58 -21 20 35 120 127 172 159 84 50 153 69 250 70 71 0 93 -4
135 -25 70 -35 90 -74 90 -172 -1 -77 0 -77 27 -83 16 -3 41 -8 57 -11 29 -5
30 -4 37 41 16 110 -24 237 -94 295 -75 62 -225 92 -347 70z"/>
<path d="M7752 5388 c4 -86 33 -168 78 -225 l21 -27 -73 -26 c-147 -51 -279
-155 -328 -255 -37 -74 -35 -180 3 -253 117 -223 428 -333 641 -228 28 14 51
24 52 23 1 -1 16 -30 33 -65 17 -34 50 -81 72 -103 159 -159 486 -138 716 46
177 142 243 262 243 444 0 296 -159 447 -470 444 -171 -1 -307 -44 -417 -131
-45 -36 -49 -38 -45 -17 3 19 -1 23 -31 29 -57 11 -156 55 -217 96 -101 68
-151 148 -159 255 l-6 70 -59 3 -59 3 5 -83z m1183 -328 c83 -31 157 -107 178
-181 37 -133 28 -262 -25 -362 -39 -72 -173 -201 -256 -245 -195 -104 -444
-93 -540 24 -76 92 -111 229 -93 358 39 278 254 442 566 432 84 -2 124 -9 170
-26z m-974 -21 c16 -11 72 -40 124 -65 52 -24 99 -52 104 -63 8 -15 5 -32 -14
-73 -39 -85 -56 -166 -55 -258 1 -47 1 -90 1 -95 -1 -6 -15 -19 -32 -29 l-31
-18 7 30 c11 52 -25 119 -77 142 -78 35 -152 19 -183 -40 -20 -38 -19 -56 5
-108 l20 -44 -33 7 c-101 20 -234 121 -278 211 -30 63 -28 142 5 199 48 81
170 169 285 206 74 24 117 23 152 -2z m11 -506 c19 -17 24 -58 8 -68 -21 -13
-71 -7 -90 10 -19 18 -27 55 -13 68 13 13 77 7 95 -10z"/>
<path d="M8403 4516 c-107 -51 -122 -153 -36 -240 61 -62 130 -71 214 -28 72
36 102 81 97 143 -12 121 -151 184 -275 125z m165 -72 c30 -20 45 -59 32 -84
-18 -34 -66 -60 -110 -60 -76 0 -131 89 -82 133 40 36 113 41 160 11z"/>
<path d="M10141 4879 c-49 -19 -148 -99 -228 -183 -46 -47 -83 -90 -83 -95 0
-4 7 -14 15 -21 13 -11 31 2 118 87 112 110 186 163 228 163 29 0 33 -6 44
-72 7 -38 23 -52 45 -38 16 10 8 97 -11 129 -24 37 -78 50 -128 30z"/>
<path d="M6550 6760 c-36 -36 -22 -111 41 -217 42 -69 190 -227 273 -289 67
-51 135 -88 144 -80 11 11 -39 171 -78 249 -77 153 -199 299 -282 337 -55 25
-73 25 -98 0z m89 -39 c50 -26 148 -132 205 -223 59 -95 127 -258 107 -258
-15 0 -172 133 -222 188 -102 113 -174 249 -156 295 8 22 19 21 66 -2z"/>
<path d="M7099 6653 c-20 -41 -24 -63 -24 -143 1 -80 5 -105 28 -161 29 -69
83 -143 97 -134 5 3 21 42 35 86 27 87 32 177 14 239 -13 42 -72 125 -105 147
-20 13 -23 11 -45 -34z m107 -110 c20 -52 15 -179 -8 -233 l-16 -35 -32 70
c-38 81 -51 195 -30 260 l12 37 29 -28 c16 -15 36 -47 45 -71z"/>
<path d="M6741 6081 c-39 -39 -21 -93 35 -107 44 -11 113 3 157 32 l42 28 -65
29 c-88 40 -141 46 -169 18z m124 -41 c23 -9 26 -13 15 -20 -19 -12 -91 -12
-109 -1 -8 5 -11 16 -7 26 7 19 44 17 101 -5z"/>
<path d="M6304 1985 c-15 -23 -14 -35 23 -201 34 -159 41 -179 65 -197 25 -18
30 -19 53 -7 14 8 28 23 31 35 7 30 -64 357 -83 378 -24 26 -69 22 -89 -8z"/>
<path d="M7386 1901 c-15 -17 -76 -325 -76 -386 0 -25 33 -55 60 -55 43 1 53
26 86 213 31 182 32 220 1 239 -21 13 -53 9 -71 -11z"/>
<path d="M5410 1880 c-11 -11 -20 -29 -20 -40 0 -12 44 -68 105 -134 163 -177
184 -190 224 -141 30 39 15 64 -122 208 -129 134 -149 145 -187 107z"/>
<path d="M8432 1673 c-11 -10 -57 -89 -102 -176 -88 -169 -94 -197 -45 -219
47 -21 67 0 155 169 47 90 83 170 83 187 0 50 -52 72 -91 39z"/>
<path d="M5850 1287 c-125 -30 -205 -91 -241 -185 -28 -77 -24 -186 11 -257
31 -64 122 -154 185 -183 28 -12 327 -96 665 -186 338 -91 878 -235 1199 -321
l583 -156 77 11 c42 7 168 31 281 55 113 24 250 48 305 55 97 11 105 11 294
-25 l194 -36 28 33 c36 42 44 69 33 120 l-9 41 -100 24 c-364 87 -621 203
-888 400 l-92 69 -385 93 c-695 168 -780 189 -1325 322 -494 120 -549 132
-650 135 -68 2 -131 -1 -165 -9z m491 -126 c134 -33 291 -71 349 -85 315 -75
1481 -358 1512 -367 l38 -10 -28 -41 c-15 -23 -39 -55 -54 -72 -67 -73 -80
-162 -34 -239 23 -40 24 -47 10 -47 -9 0 -177 41 -373 91 -342 87 -496 126
-1512 383 -251 64 -459 116 -462 116 -11 0 -27 65 -27 112 0 82 35 129 132
173 58 27 119 42 174 44 17 1 141 -26 275 -58z m-501 45 c0 -2 -18 -15 -40
-30 -57 -38 -85 -95 -83 -176 0 -36 7 -83 15 -105 14 -38 18 -40 84 -57 38
-10 355 -91 704 -179 349 -88 685 -173 745 -189 61 -16 265 -68 455 -115 190
-47 352 -88 361 -91 14 -4 15 -11 9 -41 -6 -25 -4 -47 5 -70 8 -18 10 -33 6
-33 -4 0 -352 92 -772 204 -420 113 -917 245 -1104 295 -187 50 -362 101 -388
113 -59 27 -139 110 -158 163 -7 22 -13 67 -12 101 1 98 42 159 135 199 38 16
38 16 38 11z m2622 -617 c62 -45 146 -99 186 -121 40 -22 71 -42 69 -44 -5 -5
-429 166 -442 178 -7 6 2 20 25 39 19 16 38 29 42 29 4 0 58 -36 120 -81z
m-88 -80 c266 -113 705 -267 894 -315 39 -10 72 -21 72 -25 0 -3 -57 9 -127
27 -179 45 -379 79 -590 99 -34 3 -130 6 -212 6 l-149 0 -41 44 c-44 48 -57
81 -46 122 8 33 51 93 67 93 5 0 65 -23 132 -51z m381 -273 c66 -9 140 -20
165 -24 l45 -8 -60 -8 c-62 -8 -195 -33 -448 -85 -81 -17 -159 -31 -172 -31
-16 0 -43 17 -75 48 -74 71 -66 105 27 122 68 13 375 4 518 -14z"/>
<path d="M9390 1253 c-22 -9 -311 -202 -337 -226 -42 -37 -20 -97 34 -97 25 0
309 176 361 223 51 47 7 125 -58 100z"/>
</g>
</svg>
